<svg xmlns="http://www.w3.org/2000/svg" viewBox="0 0 64 64" role="img" aria-label="いちごアイコン">
  <defs>
    <radialGradient id="berry" cx="36%" cy="28%" r="72%">
      <stop stop-color="#fecdd3"/>
      <stop offset="0.38" stop-color="#fb385f"/>
      <stop offset="1" stop-color="#b91c1c"/>
    </radialGradient>
    <linearGradient id="leaf" x1="18" y1="7" x2="47" y2="29">
      <stop stop-color="#86efac"/>
      <stop offset="1" stop-color="#15803d"/>
    </linearGradient>
  </defs>
  <rect width="64" height="64" rx="16" fill="#fff1f2"/>
  <path d="M32 58C18 49 11 38 14 26c3-10 11-14 18-9 7-5 15-1 18 9 3 12-4 23-18 32z" fill="url(#berry)"/>
  <path d="M22 22 12 16l13-1 1-9 7 8 9-8-1 10 12 1-11 6c-6-5-14-5-20-1z" fill="url(#leaf)"/>
  <g fill="#fff7ad" opacity=".95">
    <ellipse cx="24" cy="30" rx="2" ry="3" transform="rotate(-18 24 30)"/>
    <ellipse cx="35" cy="28" rx="2" ry="3" transform="rotate(16 35 28)"/>
    <ellipse cx="43" cy="36" rx="2" ry="3" transform="rotate(22 43 36)"/>
    <ellipse cx="29" cy="42" rx="2" ry="3" transform="rotate(10 29 42)"/>
    <ellipse cx="36" cy="49" rx="2" ry="3" transform="rotate(-10 36 49)"/>
    <ellipse cx="20" cy="39" rx="2" ry="3" transform="rotate(-24 20 39)"/>
  </g>
  <path d="M21 24c4-6 13-7 21 0" fill="none" stroke="#fff1f2" stroke-width="3" stroke-linecap="round" opacity=".45"/>
</svg>
